<svg xmlns="http://www.w3.org/2000/svg" viewBox="130 295 995 290" role="img" aria-label="Kama Properties mark">
  <path d="M756.98,539.07H266.94v-72.23c0-1.18-0.95-2.13-2.13-2.13h-49.53c-1.18,0-2.13,0.95-2.13,2.13v72.23h-46.17V395.11l72.63-55.87l66.54,55.45v105.04c0,9.61,7.79,17.4,17.4,17.4s17.4-7.79,17.4-17.4V386.54c0-5.16-2.29-10.06-6.26-13.37l-83.5-69.58c-6.26-5.22-15.29-5.4-21.74-0.42l-90.46,69.58c-4.28,3.29-6.79,8.39-6.79,13.79v169.92c0,9.61,7.79,17.4,17.4,17.4h607.39c9.61,0,17.4-7.79,17.4-17.4S766.59,539.07,756.98,539.07z" fill="#8C2B2E"/>
  <circle cx="824.32" cy="556.46" r="19.53" fill="#8C2B2E"/>
  <circle cx="893.9" cy="556.46" r="19.53" fill="#B08D4F"/>
  <circle cx="963.49" cy="556.46" r="19.53" fill="#8C2B2E"/>
  <circle cx="1033.07" cy="556.46" r="19.53" fill="#B08D4F"/>
  <circle cx="1102.65" cy="556.46" r="19.53" fill="#8C2B2E"/>
</svg>
