<svg xmlns="http://www.w3.org/2000/svg" viewBox="20 171.9734498617591 534.9982906455633 231.0531002764818"> <svg xmlns="http://www.w3.org/2000/svg" xmlns:xlink="http://www.w3.org/1999/xlink" version="1.1" id="Layer_1" x="90" y="241.9734498617591" viewBox="132.19996643066406 299.5517272949219 989.9801025390625 282.4140930175781" xml:space="preserve" height="91.05310027648183" width="319.1792263512621" preserveAspectRatio="xMinYMin" enable-background="new 0 0 1366 768" style="overflow: visible;"><path d="M756.98,539.07H266.94v-72.23c0-1.18-0.95-2.13-2.13-2.13h-49.53c-1.18,0-2.13,0.95-2.13,2.13v72.23h-46.17V395.11   l72.63-55.87l66.54,55.45v105.04c0,9.61,7.79,17.4,17.4,17.4s17.4-7.79,17.4-17.4V386.54c0-5.16-2.29-10.06-6.26-13.37l-83.5-69.58   c-6.26-5.22-15.29-5.4-21.74-0.42l-90.46,69.58c-4.28,3.29-6.79,8.39-6.79,13.79v169.92c0,9.61,7.79,17.4,17.4,17.4h607.39   c9.61,0,17.4-7.79,17.4-17.4S766.59,539.07,756.98,539.07z" style="fill: #AB2D2D; fill-opacity: 1;"></path><circle cx="824.32" cy="556.46" r="19.53" style="fill: #AB2D2D; fill-opacity: 1;"></circle><circle cx="893.9" cy="556.46" r="19.53" style="fill: #AB2D2D; fill-opacity: 1;"></circle><circle cx="963.49" cy="556.46" r="19.53" style="fill: #AB2D2D; fill-opacity: 1;"></circle><ellipse transform="matrix(0.3827 -0.9239 0.9239 0.3827 123.6248 1297.9441)" cx="1033.07" cy="556.46" rx="19.53" ry="19.53" style="fill: #AB2D2D; fill-opacity: 1;"></ellipse><circle cx="1102.65" cy="556.46" r="19.53" style="fill: #AB2D2D; fill-opacity: 1;"></circle></svg> <svg xmlns="http://www.w3.org/2000/svg" y="266.4294291370977" viewBox="2.4000000953674316 11.119999885559082 320.9100036621094 42.13999938964844" x="164.08828698345394" height="42.13999938964844" width="320.9100036621094" style="overflow: visible;"><g fill="#EDE8DD" fill-opacity="1" style=""><path d="M2.40 52.68L2.40 11.71L8.84 11.71L8.84 28.97L17.03 11.71L23.47 11.71L15.80 26.75L23.59 52.68L16.86 52.68L11.41 34.41L8.84 39.62L8.84 52.68L2.40 52.68ZM24.93 52.68L31.61 11.71L40.33 11.71L47.00 52.68L40.56 52.68L39.39 44.54L39.39 44.66L32.07 44.66L30.90 52.68L24.93 52.68ZM32.83 39.10L38.63 39.10L35.76 18.85L35.64 18.85L32.83 39.10ZM50.10 52.68L50.10 11.71L59.29 11.71L63.39 41.03L63.50 41.03L67.60 11.71L76.79 11.71L76.79 52.68L70.70 52.68L70.70 21.66L70.59 21.66L65.90 52.68L60.52 52.68L55.84 21.66L55.72 21.66L55.72 52.68L50.10 52.68ZM79.89 52.68L86.56 11.71L95.28 11.71L101.96 52.68L95.52 52.68L94.35 44.54L94.35 44.66L87.03 44.66L85.86 52.68L79.89 52.68ZM87.79 39.10L93.59 39.10L90.72 18.85L90.60 18.85L87.79 39.10ZM114.42 52.68L114.42 11.71L123.90 11.71Q128.70 11.71 131.10 14.28Q133.50 16.86 133.50 21.83L133.50 21.83L133.50 25.87Q133.50 30.84 131.10 33.42Q128.70 35.99 123.90 35.99L123.90 35.99L120.86 35.99L120.86 52.68L114.42 52.68ZM120.86 30.14L123.90 30.14Q125.48 30.14 126.28 29.26Q127.07 28.39 127.07 26.28L127.07 26.28L127.07 21.42Q127.07 19.31 126.28 18.44Q125.48 17.56 123.90 17.56L123.90 17.56L120.86 17.56L120.86 30.14ZM137.01 52.68L137.01 11.71L146.56 11.71Q151.53 11.71 153.81 14.02Q156.10 16.33 156.10 21.13L156.10 21.13L156.10 23.65Q156.10 30.03 151.88 31.72L151.88 31.72L151.88 31.84Q154.22 32.54 155.19 34.71Q156.15 36.87 156.15 40.50L156.15 40.50L156.15 47.70Q156.15 49.46 156.27 50.54Q156.39 51.62 156.86 52.68L156.86 52.68L150.30 52.68Q149.95 51.68 149.83 50.80Q149.72 49.92 149.72 47.64L149.72 47.64L149.72 40.15Q149.72 37.34 148.81 36.23Q147.90 35.12 145.68 35.12L145.68 35.12L143.45 35.12L143.45 52.68L137.01 52.68ZM143.45 29.26L145.79 29.26Q147.73 29.26 148.69 28.27Q149.66 27.27 149.66 24.93L149.66 24.93L149.66 21.77Q149.66 19.55 148.87 18.55Q148.08 17.56 146.38 17.56L146.38 17.56L143.45 17.56L143.45 29.26ZM169.91 53.26Q165.17 53.26 162.65 50.57Q160.13 47.88 160.13 42.96L160.13 42.96L160.13 21.42Q160.13 16.51 162.65 13.81Q165.17 11.12 169.91 11.12L169.91 11.12Q174.65 11.12 177.17 13.81Q179.68 16.51 179.68 21.42L179.68 21.42L179.68 42.96Q179.68 47.88 177.17 50.57Q174.65 53.26 169.91 53.26L169.91 53.26ZM169.91 47.41Q173.24 47.41 173.24 43.37L173.24 43.37L173.24 21.01Q173.24 16.97 169.91 16.97L169.91 16.97Q166.57 16.97 166.57 21.01L166.57 21.01L166.57 43.37Q166.57 47.41 169.91 47.41L169.91 47.41ZM184.01 52.68L184.01 11.71L193.49 11.71Q198.29 11.71 200.69 14.28Q203.09 16.86 203.09 21.83L203.09 21.83L203.09 25.87Q203.09 30.84 200.69 33.42Q198.29 35.99 193.49 35.99L193.49 35.99L190.45 35.99L190.45 52.68L184.01 52.68ZM190.45 30.14L193.49 30.14Q195.08 30.14 195.87 29.26Q196.66 28.39 196.66 26.28L196.66 26.28L196.66 21.42Q196.66 19.31 195.87 18.44Q195.08 17.56 193.49 17.56L193.49 17.56L190.45 17.56L190.45 30.14ZM206.61 52.68L206.61 11.71L224.16 11.71L224.16 17.56L213.04 17.56L213.04 28.39L221.88 28.39L221.88 34.24L213.04 34.24L213.04 46.82L224.16 46.82L224.16 52.68L206.61 52.68ZM227.85 52.68L227.85 11.71L237.39 11.71Q242.37 11.71 244.65 14.02Q246.93 16.33 246.93 21.13L246.93 21.13L246.93 23.65Q246.93 30.03 242.72 31.72L242.72 31.72L242.72 31.84Q245.06 32.54 246.02 34.71Q246.99 36.87 246.99 40.50L246.99 40.50L246.99 47.70Q246.99 49.46 247.11 50.54Q247.22 51.62 247.69 52.68L247.69 52.68L241.14 52.68Q240.79 51.68 240.67 50.80Q240.55 49.92 240.55 47.64L240.55 47.64L240.55 40.15Q240.55 37.34 239.64 36.23Q238.74 35.12 236.51 35.12L236.51 35.12L234.29 35.12L234.29 52.68L227.85 52.68ZM234.29 29.26L236.63 29.26Q238.56 29.26 239.53 28.27Q240.49 27.27 240.49 24.93L240.49 24.93L240.49 21.77Q240.49 19.55 239.70 18.55Q238.91 17.56 237.22 17.56L237.22 17.56L234.29 17.56L234.29 29.26ZM256.35 52.68L256.35 17.56L249.62 17.56L249.62 11.71L269.52 11.71L269.52 17.56L262.79 17.56L262.79 52.68L256.35 52.68ZM272.63 52.68L272.63 11.71L279.06 11.71L279.06 52.68L272.63 52.68ZM283.86 52.68L283.86 11.71L301.42 11.71L301.42 17.56L290.30 17.56L290.30 28.39L299.14 28.39L299.14 34.24L290.30 34.24L290.30 46.82L301.42 46.82L301.42 52.68L283.86 52.68ZM313.60 53.26Q308.91 53.26 306.51 50.60Q304.11 47.93 304.11 42.96L304.11 42.96L304.11 40.62L310.20 40.62L310.20 43.43Q310.20 47.41 313.54 47.41L313.54 47.41Q315.18 47.41 316.02 46.44Q316.87 45.48 316.87 43.31L316.87 43.31Q316.87 40.74 315.70 38.78Q314.53 36.81 311.37 34.06L311.37 34.06Q307.39 30.55 305.81 27.71Q304.23 24.87 304.23 21.30L304.23 21.30Q304.23 16.45 306.69 13.78Q309.15 11.12 313.83 11.12L313.83 11.12Q318.45 11.12 320.82 13.78Q323.19 16.45 323.19 21.42L323.19 21.42L323.19 23.12L317.11 23.12L317.11 21.01Q317.11 18.90 316.29 17.94Q315.47 16.97 313.89 16.97L313.89 16.97Q310.67 16.97 310.67 20.89L310.67 20.89Q310.67 23.12 311.87 25.05Q313.07 26.98 316.23 29.73L316.23 29.73Q320.27 33.24 321.79 36.11Q323.31 38.98 323.31 42.84L323.31 42.84Q323.31 47.88 320.82 50.57Q318.34 53.26 313.60 53.26L313.60 53.26Z" transform="translate(0, 0)"></path></g></svg></svg>